<svg id="svg" version="1.1" xmlns="http://www.w3.org/2000/svg" xmlns:xlink="http://www.w3.org/1999/xlink" width="400" height="400" viewBox="0, 0, 400,400"><g id="svgg"><path id="path0" d="M0.000 200.000 L 0.000 400.000 200.000 400.000 L 400.000 400.000 400.000 200.000 L 400.000 0.000 200.000 0.000 L 0.000 0.000 0.000 200.000 M160.855 56.212 C 162.688 57.152,163.860 58.405,164.630 60.247 C 165.608 62.587,165.503 86.675,164.506 88.871 C 161.660 95.134,152.613 95.417,149.779 89.330 C 148.318 86.193,148.306 63.052,149.763 59.922 C 151.624 55.925,156.873 54.170,160.855 56.212 M247.355 56.859 C 250.696 59.180,250.781 59.621,250.781 74.509 C 250.781 85.374,250.681 87.764,250.177 88.972 C 247.298 95.861,236.993 95.172,234.828 87.946 C 234.240 85.981,234.206 63.318,234.789 61.220 C 236.194 56.161,242.968 53.811,247.355 56.859 M143.220 80.273 C 143.295 90.141,143.973 92.477,147.785 95.991 C 154.922 102.570,165.691 100.366,169.859 91.475 C 170.866 89.327,170.902 89.000,171.024 80.957 L 171.149 72.656 199.832 72.656 L 228.516 72.656 228.516 79.473 C 228.516 83.222,228.713 87.221,228.955 88.360 C 231.793 101.738,249.349 103.773,255.237 91.406 L 256.445 88.867 256.577 80.762 L 256.709 72.656 263.457 72.656 C 277.384 72.656,284.791 77.201,287.086 87.153 C 287.808 90.284,287.631 228.629,286.902 231.429 C 285.014 238.676,278.623 244.728,271.194 246.302 C 266.394 247.319,131.989 247.132,127.963 246.102 C 120.343 244.153,114.251 237.853,112.890 230.513 C 112.351 227.604,112.374 89.496,112.914 87.153 C 115.207 77.208,122.651 72.639,136.328 72.781 L 143.164 72.852 143.220 80.273 M124.494 114.295 C 123.893 114.621,123.234 115.329,123.029 115.868 C 122.330 117.706,122.545 226.437,123.252 228.818 C 124.078 231.597,125.978 233.936,128.470 235.237 L 130.558 236.328 199.947 236.320 C 268.911 236.311,269.347 236.306,271.094 235.515 C 273.377 234.482,274.827 233.079,276.111 230.664 L 277.148 228.711 277.252 172.852 C 277.363 113.012,277.438 115.316,275.355 114.239 C 273.658 113.362,126.115 113.416,124.494 114.295 M157.555 130.099 C 159.159 131.361,159.457 133.116,159.312 140.436 C 159.118 150.189,159.339 150.000,148.081 150.000 C 137.234 150.000,137.357 150.134,137.568 138.541 L 137.695 131.575 138.971 130.436 L 140.247 129.297 148.391 129.297 C 156.015 129.297,156.600 129.348,157.555 130.099 M194.171 130.439 L 195.313 131.581 195.313 139.449 C 195.313 150.480,195.807 150.000,184.447 150.000 C 173.518 150.000,173.711 150.202,173.901 138.947 L 174.023 131.690 175.171 130.493 L 176.318 129.297 184.673 129.297 L 193.029 129.297 194.171 130.439 M256.117 136.970 C 258.977 138.327,260.350 142.728,258.817 145.625 C 258.510 146.205,252.402 152.509,245.243 159.634 C 227.682 177.111,229.727 176.700,218.023 165.106 C 208.451 155.622,207.794 154.439,209.863 150.405 C 212.556 145.153,216.144 145.957,223.629 153.490 L 228.703 158.597 239.254 148.088 C 251.744 135.648,252.409 135.210,256.117 136.970 M157.300 165.997 C 159.040 167.057,159.370 168.636,159.373 175.891 C 159.376 186.040,159.488 185.938,148.438 185.938 C 137.271 185.938,137.500 186.154,137.500 175.586 C 137.500 165.129,137.349 165.272,148.438 165.251 C 155.309 165.239,156.177 165.312,157.300 165.997 M193.984 166.563 L 195.313 167.891 195.313 175.573 C 195.313 186.386,195.781 185.938,184.481 185.938 C 173.643 185.938,173.828 186.117,173.828 175.586 C 173.828 165.027,173.610 165.234,184.696 165.234 L 192.656 165.234 193.984 166.563 M157.380 202.174 C 159.052 203.580,159.370 205.185,159.373 212.220 C 159.376 222.368,159.488 222.266,148.438 222.266 C 137.244 222.266,137.500 222.512,137.500 211.719 C 137.500 201.028,137.310 201.210,148.505 201.188 L 156.190 201.172 157.380 202.174 M192.964 201.756 C 195.217 202.921,195.313 203.338,195.313 212.031 L 195.313 219.982 194.171 221.124 L 193.029 222.266 184.802 222.266 L 176.575 222.266 175.299 221.127 L 174.023 219.988 173.902 212.477 C 173.716 201.045,173.594 201.176,184.492 201.173 C 190.245 201.172,192.080 201.298,192.964 201.756 M230.111 202.643 L 231.250 203.919 231.250 211.549 C 231.250 222.754,231.738 222.266,220.540 222.266 L 212.512 222.266 211.237 221.126 L 209.961 219.986 209.961 211.719 L 209.961 203.452 211.261 202.290 L 212.561 201.129 220.766 201.248 L 228.972 201.367 230.111 202.643 M261.378 201.784 C 263.350 202.803,263.672 204.226,263.672 211.921 C 263.672 222.364,263.768 222.266,253.594 222.266 L 246.424 222.266 245.316 221.157 C 242.197 218.038,243.245 202.965,246.680 201.545 C 248.201 200.915,260.073 201.109,261.378 201.784 M281.641 298.438 L 281.641 322.656 277.344 322.656 L 273.047 322.656 273.047 320.220 L 273.047 317.784 272.184 318.999 C 269.233 323.153,260.653 324.838,255.384 322.299 C 243.827 316.729,243.288 295.803,254.532 289.214 C 260.160 285.916,268.167 286.657,271.817 290.814 L 273.047 292.215 273.047 283.217 L 273.047 274.219 277.344 274.219 L 281.641 274.219 281.641 298.438 M83.805 276.380 C 90.561 278.116,95.906 283.329,97.110 289.355 L 97.363 290.625 92.665 290.625 L 87.967 290.625 87.559 289.454 C 85.276 282.904,75.272 281.045,69.626 286.122 C 62.827 292.235,62.592 306.999,69.205 312.659 C 76.303 318.736,87.757 315.377,88.922 306.877 L 89.169 305.078 84.037 305.078 L 78.906 305.078 78.906 301.563 L 78.906 298.047 88.337 298.047 L 97.769 298.047 97.547 303.027 C 96.920 317.082,89.778 323.896,76.248 323.347 C 63.113 322.813,55.256 313.964,55.346 299.805 C 55.455 282.639,67.995 272.317,83.805 276.380 M150.000 295.313 L 150.000 314.844 160.156 314.844 L 170.313 314.844 170.313 318.750 L 170.313 322.656 155.762 322.656 L 141.211 322.656 141.305 299.316 C 141.357 286.479,141.401 275.933,141.403 275.879 C 141.405 275.825,143.340 275.781,145.703 275.781 L 150.000 275.781 150.000 295.313 M125.141 288.223 C 141.655 294.071,139.068 320.809,121.727 323.505 C 110.605 325.234,101.563 317.396,101.563 306.026 C 101.563 292.647,113.079 283.951,125.141 288.223 M194.397 288.064 C 200.759 290.012,204.483 295.491,204.965 303.613 L 205.192 307.422 193.026 307.422 C 183.216 307.422,180.859 307.522,180.859 307.937 C 180.859 315.978,193.127 320.054,196.054 312.986 L 196.520 311.862 200.690 312.397 C 205.702 313.041,205.399 312.781,204.044 315.272 C 196.820 328.543,175.971 325.424,172.829 310.603 C 169.634 295.528,180.769 283.891,194.397 288.064 M234.743 288.309 C 240.692 290.868,241.521 293.410,241.705 309.668 L 241.853 322.656 237.528 322.656 L 233.203 322.656 233.203 311.582 C 233.203 304.367,233.049 300.044,232.760 299.179 C 230.759 293.183,222.346 293.342,219.659 299.428 C 219.075 300.750,218.953 302.560,218.826 311.816 L 218.677 322.656 214.427 322.656 L 210.176 322.656 210.221 305.469 L 210.267 288.281 214.606 288.281 L 218.945 288.280 218.836 290.722 C 218.719 293.338,218.619 293.323,220.508 290.974 C 223.473 287.287,229.670 286.127,234.743 288.309 M307.087 287.673 C 316.229 289.611,317.076 291.411,317.251 309.278 L 317.383 322.657 313.184 322.656 L 308.984 322.656 308.984 320.624 L 308.984 318.591 307.520 319.996 C 301.568 325.706,290.605 324.017,287.646 316.935 C 286.742 314.771,286.951 310.442,288.067 308.241 C 290.391 303.654,293.642 302.417,305.221 301.716 L 309.075 301.483 308.899 299.366 C 308.405 293.405,298.666 292.316,296.816 298.015 C 296.662 298.489,296.102 298.496,292.955 298.066 C 288.006 297.390,288.194 297.507,288.951 295.570 C 291.597 288.807,298.420 285.836,307.087 287.673 M343.972 287.543 C 344.119 287.782,344.309 289.693,344.392 291.789 L 344.544 295.602 341.510 295.783 C 333.564 296.258,332.427 298.386,332.424 312.793 L 332.422 322.656 328.125 322.656 L 323.828 322.656 323.828 305.469 L 323.828 288.281 328.125 288.281 L 332.422 288.281 332.423 291.113 L 332.425 293.945 333.158 292.773 C 335.541 288.965,342.708 285.499,343.972 287.543 M187.305 294.104 C 184.696 294.753,182.363 296.985,181.664 299.501 C 180.944 302.093,180.519 301.953,189.106 301.953 L 196.962 301.953 196.694 300.488 C 195.870 295.984,191.553 293.049,187.305 294.104 M116.018 295.132 C 107.129 299.128,109.583 316.453,119.030 316.398 C 129.747 316.335,130.149 295.368,119.447 294.656 C 118.139 294.569,116.883 294.743,116.018 295.132 M261.805 295.090 C 252.476 298.087,253.188 314.415,262.710 315.843 C 268.526 316.715,272.630 312.857,272.967 306.199 C 273.374 298.163,268.217 293.031,261.805 295.090 M301.367 307.796 C 296.030 308.303,293.793 311.932,296.777 315.242 C 300.573 319.452,308.984 315.325,308.984 309.252 L 308.984 307.422 306.543 307.479 C 305.200 307.511,302.871 307.653,301.367 307.796 " stroke="none" fill="#127bca" fill-rule="evenodd"></path><path id="path1" d="M153.963 55.887 C 152.060 56.649,150.662 57.993,149.763 59.922 C 148.306 63.052,148.318 86.193,149.779 89.330 C 152.613 95.417,161.660 95.134,164.506 88.871 C 165.503 86.675,165.608 62.587,164.630 60.247 C 163.011 56.371,157.934 54.296,153.963 55.887 M239.254 56.176 C 237.274 57.102,235.319 59.311,234.789 61.220 C 234.206 63.318,234.240 85.981,234.828 87.946 C 236.993 95.172,247.298 95.861,250.177 88.972 C 251.284 86.323,251.056 62.036,249.902 59.756 C 248.038 56.070,243.058 54.396,239.254 56.176 M127.056 73.243 C 120.389 74.704,114.434 80.561,112.914 87.153 C 112.374 89.496,112.351 227.604,112.890 230.513 C 114.251 237.853,120.343 244.153,127.963 246.102 C 131.989 247.132,266.394 247.319,271.194 246.302 C 278.623 244.728,285.014 238.676,286.902 231.429 C 287.631 228.629,287.808 90.284,287.086 87.153 C 284.791 77.201,277.384 72.656,263.457 72.656 L 256.709 72.656 256.577 80.762 L 256.445 88.867 255.237 91.406 C 249.349 103.773,231.793 101.738,228.955 88.360 C 228.713 87.221,228.516 83.222,228.516 79.473 L 228.516 72.656 199.832 72.656 L 171.149 72.656 171.024 80.957 C 170.902 89.000,170.866 89.327,169.859 91.475 C 165.691 100.366,154.922 102.570,147.785 95.991 C 143.973 92.477,143.295 90.141,143.220 80.273 L 143.164 72.852 136.328 72.781 C 131.748 72.733,128.688 72.886,127.056 73.243 M275.355 114.239 C 277.438 115.316,277.363 113.012,277.252 172.852 L 277.148 228.711 276.111 230.664 C 274.827 233.079,273.377 234.482,271.094 235.515 C 269.347 236.306,268.911 236.311,199.947 236.320 L 130.558 236.328 128.470 235.237 C 125.978 233.936,124.078 231.597,123.252 228.818 C 122.545 226.437,122.330 117.706,123.029 115.868 C 123.907 113.559,118.766 113.705,199.922 113.688 C 264.183 113.674,274.406 113.749,275.355 114.239 M138.971 130.436 L 137.695 131.575 137.568 138.541 C 137.357 150.134,137.234 150.000,148.081 150.000 C 159.339 150.000,159.118 150.189,159.312 140.436 C 159.536 129.162,159.668 129.297,148.391 129.297 L 140.247 129.297 138.971 130.436 M175.171 130.493 L 174.023 131.690 173.901 138.947 C 173.711 150.202,173.518 150.000,184.447 150.000 C 195.807 150.000,195.313 150.480,195.313 139.449 L 195.313 131.581 194.171 130.439 L 193.029 129.297 184.673 129.297 L 176.318 129.297 175.171 130.493 M250.977 136.970 C 250.332 137.305,245.057 142.309,239.254 148.088 L 228.703 158.597 223.629 153.490 C 216.144 145.957,212.556 145.153,209.863 150.405 C 207.794 154.439,208.451 155.622,218.023 165.106 C 229.727 176.700,227.682 177.111,245.243 159.634 C 259.339 145.605,259.375 145.561,259.375 142.493 C 259.375 137.916,254.861 134.947,250.977 136.970 M139.751 165.846 C 137.759 166.927,137.500 168.048,137.500 175.586 C 137.500 186.154,137.271 185.938,148.438 185.938 C 159.488 185.938,159.376 186.040,159.373 175.891 C 159.369 165.176,159.426 165.231,148.438 165.251 C 142.461 165.263,140.590 165.391,139.751 165.846 M175.866 165.844 C 174.066 167.105,173.828 168.243,173.828 175.586 C 173.828 186.117,173.643 185.938,184.481 185.938 C 195.781 185.938,195.313 186.386,195.313 175.573 L 195.313 167.891 193.984 166.563 L 192.656 165.234 184.696 165.234 C 178.115 165.234,176.586 165.340,175.866 165.844 M139.751 201.783 C 137.749 202.869,137.500 203.970,137.500 211.719 C 137.500 222.512,137.244 222.266,148.438 222.266 C 159.488 222.266,159.376 222.368,159.373 212.220 C 159.370 205.185,159.052 203.580,157.380 202.174 L 156.190 201.172 148.505 201.188 C 142.471 201.200,140.591 201.328,139.751 201.783 M175.945 201.908 C 173.966 203.115,173.766 204.149,173.902 212.477 L 174.023 219.988 175.299 221.127 L 176.575 222.266 184.802 222.266 L 193.029 222.266 194.171 221.124 L 195.313 219.982 195.313 212.031 C 195.313 200.891,195.592 201.171,184.492 201.173 C 177.997 201.175,177.010 201.260,175.945 201.908 M211.261 202.290 L 209.961 203.452 209.961 211.719 L 209.961 219.986 211.237 221.126 L 212.512 222.266 220.540 222.266 C 231.738 222.266,231.250 222.754,231.250 211.549 L 231.250 203.919 230.111 202.643 L 228.972 201.367 220.766 201.248 L 212.561 201.129 211.261 202.290 M246.680 201.545 C 243.245 202.965,242.197 218.038,245.316 221.157 L 246.424 222.266 253.594 222.266 C 263.768 222.266,263.672 222.364,263.672 211.921 C 263.672 201.249,263.589 201.159,253.828 201.197 C 250.326 201.210,247.109 201.367,246.680 201.545 M273.047 283.217 L 273.047 292.215 271.817 290.814 C 268.167 286.657,260.160 285.916,254.532 289.214 C 243.288 295.803,243.827 316.729,255.384 322.299 C 260.653 324.838,269.233 323.153,272.184 318.999 L 273.047 317.784 273.047 320.220 L 273.047 322.656 277.344 322.656 L 281.641 322.656 281.641 298.438 L 281.641 274.219 277.344 274.219 L 273.047 274.219 273.047 283.217 M70.747 276.399 C 61.239 278.956,55.423 287.796,55.346 299.805 C 55.256 313.964,63.113 322.813,76.248 323.347 C 89.778 323.896,96.920 317.082,97.547 303.027 L 97.769 298.047 88.337 298.047 L 78.906 298.047 78.906 301.563 L 78.906 305.078 84.037 305.078 L 89.169 305.078 88.922 306.877 C 87.757 315.377,76.303 318.736,69.205 312.659 C 62.592 306.999,62.827 292.235,69.626 286.122 C 75.272 281.045,85.276 282.904,87.559 289.454 L 87.967 290.625 92.665 290.625 L 97.363 290.625 97.110 289.355 C 95.128 279.430,82.519 273.233,70.747 276.399 M141.403 275.879 C 141.401 275.933,141.357 286.479,141.305 299.316 L 141.211 322.656 155.762 322.656 L 170.313 322.656 170.313 318.750 L 170.313 314.844 160.156 314.844 L 150.000 314.844 150.000 295.313 L 150.000 275.781 145.703 275.781 C 143.340 275.781,141.405 275.825,141.403 275.879 M114.494 287.702 C 96.525 292.749,97.557 320.673,115.816 323.512 C 127.661 325.354,137.176 316.056,136.176 303.619 C 135.263 292.274,125.011 284.749,114.494 287.702 M184.384 287.710 C 171.010 291.462,167.705 312.900,179.307 320.648 C 187.602 326.187,199.511 323.599,204.044 315.272 C 205.399 312.781,205.702 313.041,200.690 312.397 L 196.520 311.862 196.054 312.986 C 193.127 320.054,180.859 315.978,180.859 307.937 C 180.859 307.522,183.216 307.422,193.026 307.422 L 205.192 307.422 204.965 303.613 C 204.266 291.842,195.048 284.719,184.384 287.710 M225.657 287.643 C 223.624 288.216,221.751 289.428,220.508 290.974 C 218.619 293.323,218.719 293.338,218.836 290.722 L 218.945 288.280 214.606 288.281 L 210.267 288.281 210.221 305.469 L 210.176 322.656 214.427 322.656 L 218.677 322.656 218.826 311.816 C 218.953 302.560,219.075 300.750,219.659 299.428 C 222.346 293.342,230.759 293.183,232.760 299.179 C 233.049 300.044,233.203 304.367,233.203 311.582 L 233.203 322.656 237.528 322.656 L 241.853 322.656 241.705 309.668 C 241.538 294.903,241.451 294.406,238.452 291.071 C 235.521 287.811,230.158 286.374,225.657 287.643 M297.605 287.830 C 293.236 288.971,290.617 291.313,288.951 295.570 C 288.194 297.507,288.006 297.390,292.955 298.066 C 296.102 298.496,296.662 298.489,296.816 298.015 C 298.666 292.316,308.405 293.405,308.899 299.366 L 309.075 301.483 305.221 301.716 C 293.642 302.417,290.391 303.654,288.067 308.241 C 282.424 319.377,298.216 328.920,307.520 319.996 L 308.984 318.591 308.984 320.624 L 308.984 322.656 313.184 322.656 L 317.383 322.657 317.251 309.278 C 317.129 296.847,317.063 295.767,316.323 294.040 C 314.011 288.646,305.411 285.793,297.605 287.830 M339.130 287.854 C 336.989 288.593,334.481 290.659,333.158 292.773 L 332.425 293.945 332.423 291.113 L 332.422 288.281 328.125 288.281 L 323.828 288.281 323.828 305.469 L 323.828 322.656 328.125 322.656 L 332.422 322.656 332.424 312.793 C 332.427 298.386,333.564 296.258,341.510 295.783 L 344.544 295.602 344.392 291.789 C 344.185 286.593,343.742 286.261,339.130 287.854 M193.050 294.968 C 194.678 295.793,196.279 298.218,196.694 300.488 L 196.962 301.953 189.106 301.953 C 180.519 301.953,180.944 302.093,181.664 299.501 C 182.987 294.738,188.368 292.595,193.050 294.968 M123.153 295.947 C 129.183 300.185,128.496 312.702,122.070 315.668 C 115.991 318.474,110.742 313.747,110.742 305.469 C 110.742 296.610,117.127 291.712,123.153 295.947 M268.661 295.951 C 274.134 299.123,274.737 309.830,269.679 314.000 C 264.524 318.249,256.880 315.197,255.452 308.320 C 253.501 298.921,261.257 291.658,268.661 295.951 M308.984 309.252 C 308.984 314.092,304.535 317.495,299.295 316.663 C 295.362 316.038,294.310 310.408,297.774 308.523 C 298.684 308.028,302.495 307.574,306.543 307.479 L 308.984 307.422 308.984 309.252 " stroke="none" fill="#fafbfb" fill-rule="evenodd"></path></g></svg>