<svg id="svg" version="1.1" xmlns="http://www.w3.org/2000/svg" xmlns:xlink="http://www.w3.org/1999/xlink" width="400" height="400" viewBox="0, 0, 400,400"><g id="svgg"><path id="path0" d="M191.211 55.864 C 103.573 61.685,44.300 145.725,68.616 229.682 C 90.642 305.732,173.178 346.761,248.502 319.103 C 333.351 287.948,364.228 182.330,309.758 109.570 C 282.712 73.443,237.170 52.811,191.211 55.864 M250.712 90.242 C 253.446 91.418,256.420 94.671,257.218 97.359 C 258.320 101.069,258.067 122.680,256.892 125.203 C 252.620 134.376,239.536 134.273,235.203 125.034 L 234.180 122.852 234.180 110.156 L 234.180 97.461 235.338 95.369 C 238.377 89.883,244.856 87.723,250.712 90.242 M159.375 90.457 C 162.043 91.695,163.824 93.367,165.172 95.898 L 166.211 97.852 166.211 110.547 L 166.211 123.242 165.192 125.391 C 160.154 136.015,145.059 134.190,142.581 122.656 C 142.268 121.199,142.162 116.987,142.251 109.570 L 142.383 98.633 143.477 96.405 C 146.430 90.391,153.517 87.740,159.375 90.457 M135.938 115.543 C 135.938 120.526,136.107 123.143,136.536 124.791 C 140.895 141.527,163.207 143.756,170.637 128.198 L 172.070 125.195 172.196 116.895 L 172.321 108.594 200.028 108.594 L 227.734 108.594 227.741 114.941 C 227.752 124.943,229.058 129.041,233.625 133.397 C 240.923 140.358,251.777 140.101,258.968 132.797 C 263.289 128.409,264.453 124.573,264.453 114.723 L 264.453 108.495 270.020 108.691 C 282.340 109.125,291.133 115.651,293.912 126.424 C 294.859 130.095,294.855 256.569,293.908 259.792 C 291.580 267.712,284.930 274.315,276.758 276.820 C 273.114 277.938,126.884 277.940,123.264 276.823 C 115.221 274.340,108.902 268.410,106.362 260.960 L 105.489 258.398 105.489 192.969 L 105.489 127.539 106.362 124.977 C 109.967 114.404,118.543 108.702,130.957 108.625 L 135.938 108.594 135.938 115.543 M141.730 168.862 C 138.323 171.449,135.522 179.077,135.458 185.938 C 135.220 211.765,171.241 217.248,179.903 192.703 C 182.451 185.481,182.369 185.402,161.895 175.398 C 144.319 166.810,144.398 166.836,141.730 168.862 M238.530 175.593 C 222.124 182.988,220.370 183.938,219.294 186.019 C 216.674 191.085,223.324 202.147,231.542 206.392 C 241.610 211.592,254.589 208.046,260.650 198.438 C 266.603 189.001,265.381 173.421,258.364 169.298 C 255.873 167.834,255.444 167.970,238.530 175.593 M169.727 221.844 C 162.542 223.081,161.847 230.431,168.346 236.448 C 186.274 253.047,212.064 253.053,231.119 236.464 C 237.484 230.922,237.080 223.690,230.301 221.836 C 227.212 220.992,225.564 221.622,222.289 224.902 C 209.415 237.792,190.297 238.095,178.125 225.602 C 174.604 221.988,173.016 221.278,169.727 221.844 " stroke="none" fill="#fbfbf4" fill-rule="evenodd"></path><path id="path1" d="M0.000 200.000 L 0.000 400.000 200.000 400.000 L 400.000 400.000 400.000 200.000 L 400.000 0.000 200.000 0.000 L 0.000 0.000 0.000 200.000 M216.211 56.428 C 222.874 57.216,228.681 58.318,235.156 60.021 C 238.057 60.784,240.693 61.454,241.016 61.509 C 241.338 61.565,241.865 61.718,242.188 61.850 C 242.510 61.982,244.707 62.779,247.070 63.622 C 256.892 67.122,265.721 71.399,274.309 76.815 C 275.110 77.321,275.930 77.734,276.132 77.734 C 276.333 77.734,276.556 77.866,276.628 78.027 C 276.699 78.188,278.340 79.453,280.273 80.838 C 287.415 85.952,301.048 97.906,302.195 100.060 C 302.384 100.415,303.463 101.733,304.593 102.989 C 305.723 104.246,307.914 106.943,309.463 108.984 C 311.013 111.025,312.417 112.754,312.585 112.826 C 312.753 112.897,312.891 113.125,312.891 113.331 C 312.891 113.538,313.745 114.974,314.788 116.522 C 355.822 177.375,338.456 263.706,276.953 304.618 C 273.838 306.690,271.201 308.488,271.094 308.613 C 270.458 309.353,254.393 316.973,249.850 318.690 C 213.052 332.598,172.545 330.528,137.695 312.960 C 134.473 311.336,131.768 310.055,131.684 310.115 C 131.601 310.174,131.425 310.055,131.294 309.850 C 131.162 309.644,129.824 308.726,128.320 307.809 C 126.816 306.893,124.585 305.464,123.361 304.634 C 122.138 303.804,121.040 303.125,120.923 303.125 C 120.805 303.125,120.312 302.793,119.827 302.388 C 119.342 301.982,116.660 299.840,113.867 297.626 C 100.892 287.343,88.143 272.311,80.263 258.008 C 79.435 256.504,78.571 255.144,78.343 254.986 C 78.116 254.829,78.064 254.697,78.228 254.693 C 78.391 254.690,77.925 253.495,77.191 252.037 C 48.368 194.803,64.947 122.725,115.820 84.096 C 117.969 82.464,119.902 80.919,120.117 80.663 C 120.332 80.406,120.638 80.167,120.797 80.131 C 121.379 80.000,125.958 76.909,126.250 76.450 C 126.415 76.189,126.553 76.097,126.557 76.244 C 126.560 76.392,128.188 75.547,130.176 74.368 C 155.019 59.627,186.958 52.967,216.211 56.428 " stroke="none" fill="#0b73bc" fill-rule="evenodd"></path><path id="path2" d="M150.908 89.992 C 147.385 91.144,145.134 93.175,143.498 96.680 C 142.201 99.456,142.070 121.311,143.330 124.627 C 146.952 134.159,160.027 135.003,164.771 126.012 L 165.820 124.023 165.820 110.742 C 165.820 95.808,165.830 95.867,162.802 92.928 C 159.787 90.002,154.709 88.748,150.908 89.992 M241.514 90.099 C 239.316 90.877,236.224 93.714,235.201 95.890 C 234.413 97.566,234.375 98.233,234.375 110.250 L 234.376 122.852 235.500 125.195 C 239.690 133.933,251.742 134.253,256.445 125.751 L 257.617 123.633 257.617 111.133 C 257.617 97.238,257.576 96.956,255.071 93.787 C 252.052 89.968,246.302 88.404,241.514 90.099 M129.492 109.005 C 117.120 109.432,108.610 115.826,106.069 126.603 C 105.172 130.408,105.169 256.107,106.066 259.550 C 107.941 266.751,114.173 273.464,121.540 276.219 L 124.023 277.148 198.995 277.251 C 281.545 277.364,275.873 277.522,281.061 274.968 C 287.252 271.920,292.380 265.520,293.943 258.891 C 294.786 255.316,294.811 131.265,293.969 127.296 C 292.336 119.588,286.305 112.855,278.358 109.869 C 277.306 109.473,274.662 109.185,270.638 109.028 L 264.519 108.789 264.388 116.632 L 264.258 124.476 262.601 127.818 C 256.319 140.491,239.938 142.359,231.582 131.356 C 228.382 127.143,227.993 125.617,227.819 116.602 L 227.668 108.789 200.162 108.789 L 172.656 108.789 172.656 115.279 C 172.656 122.700,172.318 124.991,170.720 128.406 C 164.163 142.418,144.669 142.291,137.628 128.190 L 136.133 125.195 135.938 116.992 L 135.742 108.789 129.492 109.005 M161.449 175.019 C 178.705 183.406,179.300 183.745,180.256 185.760 C 182.252 189.968,178.442 198.587,172.338 203.668 C 159.770 214.130,139.970 207.761,135.928 191.955 C 133.989 184.374,136.415 173.677,141.057 169.335 C 144.083 166.505,143.725 166.405,161.449 175.019 M257.621 168.697 C 262.117 170.740,265.370 178.946,264.681 186.507 C 262.369 211.846,230.819 217.407,219.960 194.388 C 216.042 186.082,216.917 185.193,238.703 175.344 C 256.425 167.333,255.406 167.691,257.621 168.697 M173.686 221.895 C 174.281 222.121,176.276 223.761,178.121 225.540 C 190.949 237.905,208.998 237.629,222.164 224.865 C 225.276 221.848,225.454 221.739,227.545 221.565 C 236.140 220.853,238.624 229.342,231.769 236.000 C 219.872 247.555,201.847 251.939,186.328 247.050 C 174.553 243.341,163.709 234.457,163.680 228.494 C 163.658 223.776,169.133 220.164,173.686 221.895 " stroke="none" fill="#04325c" fill-rule="evenodd"></path><path id="path3" d="M234.156 109.961 C 234.156 115.977,234.211 118.383,234.277 115.308 C 234.343 112.234,234.343 107.312,234.276 104.371 C 234.210 101.430,234.156 103.945,234.156 109.961 M129.004 108.882 C 130.239 108.960,132.261 108.960,133.496 108.882 C 134.731 108.805,133.721 108.741,131.250 108.741 C 128.779 108.741,127.769 108.805,129.004 108.882 M186.650 108.887 C 194.239 108.946,206.543 108.946,213.993 108.887 C 221.444 108.827,215.234 108.779,200.195 108.779 C 185.156 108.779,179.061 108.827,186.650 108.887 M266.909 108.883 C 268.152 108.961,270.086 108.960,271.206 108.881 C 272.326 108.803,271.309 108.739,268.945 108.740 C 266.582 108.741,265.666 108.805,266.909 108.883 M198.730 234.651 C 199.214 234.744,200.005 234.744,200.488 234.651 C 200.972 234.558,200.576 234.481,199.609 234.481 C 198.643 234.481,198.247 234.558,198.730 234.651 " stroke="none" fill="#234c76" fill-rule="evenodd"></path><path id="path4" d="M194.238 55.738 C 194.614 55.836,195.229 55.836,195.605 55.738 C 195.981 55.640,195.674 55.559,194.922 55.559 C 194.170 55.559,193.862 55.640,194.238 55.738 M204.785 55.738 C 205.161 55.836,205.776 55.836,206.152 55.738 C 206.528 55.640,206.221 55.559,205.469 55.559 C 204.717 55.559,204.409 55.640,204.785 55.738 M105.255 93.066 L 103.711 94.727 105.371 93.182 C 106.915 91.746,107.211 91.406,106.915 91.406 C 106.851 91.406,106.104 92.153,105.255 93.066 M99.780 98.535 L 98.633 99.805 99.902 98.657 C 101.086 97.588,101.351 97.266,101.050 97.266 C 100.982 97.266,100.411 97.837,99.780 98.535 M166.188 110.352 C 166.188 116.582,166.242 119.076,166.308 115.894 C 166.374 112.712,166.373 107.614,166.308 104.566 C 166.242 101.518,166.188 104.121,166.188 110.352 M142.286 101.367 C 142.290 102.227,142.370 102.532,142.464 102.046 C 142.557 101.560,142.554 100.857,142.456 100.484 C 142.358 100.110,142.282 100.508,142.286 101.367 M142.342 110.742 C 142.342 113.750,142.404 114.929,142.478 113.362 C 142.552 111.795,142.552 109.334,142.477 107.893 C 142.402 106.452,142.341 107.734,142.342 110.742 M172.425 115.625 C 172.425 119.170,172.484 120.620,172.556 118.848 C 172.629 117.075,172.629 114.175,172.556 112.402 C 172.484 110.630,172.425 112.080,172.425 115.625 M142.309 119.727 C 142.311 121.016,142.384 121.496,142.471 120.794 C 142.558 120.092,142.556 119.037,142.467 118.450 C 142.377 117.863,142.306 118.438,142.309 119.727 M153.813 138.948 C 154.299 139.042,155.002 139.038,155.376 138.940 C 155.749 138.842,155.352 138.766,154.492 138.770 C 153.633 138.775,153.327 138.855,153.813 138.948 M264.552 184.961 C 264.556 185.820,264.636 186.126,264.729 185.640 C 264.823 185.154,264.819 184.451,264.722 184.077 C 264.624 183.704,264.547 184.102,264.552 184.961 M63.033 191.602 C 63.034 193.750,63.100 194.579,63.179 193.444 C 63.258 192.309,63.257 190.551,63.177 189.538 C 63.097 188.524,63.032 189.453,63.033 191.602 M336.809 196.484 C 336.809 197.236,336.890 197.544,336.988 197.168 C 337.086 196.792,337.086 196.177,336.988 195.801 C 336.890 195.425,336.809 195.732,336.809 196.484 M141.406 202.148 C 142.135 202.900,142.819 203.516,142.927 203.516 C 143.034 203.516,142.526 202.900,141.797 202.148 C 141.068 201.396,140.384 200.781,140.276 200.781 C 140.169 200.781,140.677 201.396,141.406 202.148 M225.391 202.148 C 226.119 202.900,226.804 203.516,226.911 203.516 C 227.018 203.516,226.510 202.900,225.781 202.148 C 225.052 201.396,224.368 200.781,224.261 200.781 C 224.153 200.781,224.662 201.396,225.391 202.148 M157.719 208.870 C 158.205 208.963,158.908 208.960,159.282 208.862 C 159.655 208.764,159.258 208.688,158.398 208.692 C 157.539 208.697,157.233 208.777,157.719 208.870 M198.145 249.108 C 198.735 249.197,199.702 249.197,200.293 249.108 C 200.884 249.018,200.400 248.945,199.219 248.945 C 198.037 248.945,197.554 249.018,198.145 249.108 M163.605 277.637 C 183.656 277.693,216.352 277.693,236.261 277.637 C 256.171 277.581,239.766 277.535,199.805 277.535 C 159.844 277.535,143.554 277.581,163.605 277.637 " stroke="none" fill="#6491b6" fill-rule="evenodd"></path></g></svg>