<svg id="svg" version="1.1" xmlns="http://www.w3.org/2000/svg" xmlns:xlink="http://www.w3.org/1999/xlink" width="400" height="400" viewBox="0, 0, 400,400"><g id="svgg"><path id="path0" d="M0.000 200.000 L 0.000 400.000 200.000 400.000 L 400.000 400.000 400.000 200.000 L 400.000 0.000 200.000 0.000 L 0.000 0.000 0.000 200.000 M215.820 45.879 C 279.580 56.187,317.024 116.981,297.031 177.734 C 273.609 248.908,181.816 270.922,128.188 218.226 C 75.960 166.907,93.492 78.449,161.133 51.997 C 177.158 45.730,199.466 43.234,215.820 45.879 M164.003 72.803 C 158.259 74.365,157.311 76.737,157.489 89.095 L 157.617 97.916 158.798 99.825 C 162.736 106.189,171.341 105.750,174.472 99.026 C 175.649 96.498,175.885 80.456,174.784 77.819 C 173.098 73.783,168.415 71.604,164.003 72.803 M231.530 72.698 C 228.515 73.396,226.320 75.176,225.216 77.819 C 224.452 79.648,224.331 95.661,225.063 98.102 C 227.559 106.435,239.498 106.277,242.003 97.878 C 242.780 95.275,242.793 80.582,242.021 78.417 C 240.495 74.141,235.966 71.672,231.530 72.698 M147.461 87.140 C 138.832 87.523,134.398 90.344,131.549 97.266 L 130.664 99.414 130.547 146.875 C 130.463 180.998,130.554 194.995,130.872 196.680 C 132.173 203.579,137.352 208.947,144.084 210.374 C 147.431 211.083,251.465 211.214,255.299 210.514 C 262.284 209.238,267.814 203.707,269.104 196.706 C 269.701 193.464,269.701 103.801,269.104 100.560 C 267.462 91.647,261.505 87.204,250.912 86.993 L 246.941 86.914 246.810 92.773 C 246.568 103.634,241.155 109.672,232.375 108.876 C 224.547 108.166,220.592 102.921,220.378 92.969 L 220.247 86.914 200.065 87.007 L 179.883 87.099 179.683 93.061 C 179.348 103.100,175.487 108.163,167.625 108.876 C 158.917 109.666,153.442 103.631,153.193 92.969 C 153.035 86.226,153.663 86.864,147.461 87.140 M171.410 135.389 C 186.139 142.088,185.941 141.938,185.934 146.367 C 185.916 156.962,170.506 163.925,160.295 157.952 C 152.496 153.391,149.892 141.047,155.120 133.418 C 157.831 129.461,158.574 129.550,171.410 135.389 M243.009 131.359 C 245.512 133.037,247.656 138.483,247.656 143.164 C 247.656 158.868,229.303 165.990,217.959 154.688 C 213.821 150.564,212.878 147.212,214.799 143.447 C 215.897 141.295,215.803 141.349,228.602 135.515 C 240.372 130.150,240.955 129.982,243.009 131.359 M180.579 170.449 C 181.270 170.739,182.891 171.890,184.180 173.007 C 193.645 181.208,206.230 181.332,215.682 173.317 C 220.145 169.534,222.181 169.116,224.563 171.498 C 230.911 177.846,214.721 189.844,199.805 189.844 C 185.654 189.844,169.394 178.341,174.856 172.194 C 176.717 170.100,178.471 169.565,180.579 170.449 M79.409 271.273 C 87.034 272.632,93.033 277.767,95.059 284.668 L 95.661 286.719 90.671 286.719 L 85.680 286.719 84.745 284.721 C 80.618 275.911,66.878 277.391,63.270 287.034 C 61.322 292.239,61.408 300.084,63.462 304.570 C 68.623 315.843,84.371 314.790,86.536 303.027 L 86.806 301.563 81.293 301.563 L 75.781 301.563 75.781 297.842 L 75.781 294.122 85.993 294.154 L 96.205 294.186 95.973 298.948 C 95.270 313.365,86.647 321.548,73.242 320.520 C 59.661 319.478,51.953 310.676,51.953 296.206 C 51.953 278.880,63.461 268.430,79.409 271.273 M148.347 291.016 L 148.242 311.328 159.277 311.328 L 170.313 311.328 170.313 315.527 L 170.313 319.727 154.492 319.727 L 138.672 319.727 138.672 295.215 L 138.672 270.703 143.562 270.703 L 148.451 270.703 148.347 291.016 M284.375 295.215 L 284.375 319.727 279.981 319.656 L 275.586 319.585 275.257 317.200 L 274.928 314.816 273.424 316.524 C 268.517 322.099,258.639 321.849,253.394 316.015 C 247.763 309.752,247.107 297.041,252.020 289.357 C 257.180 281.283,270.303 280.771,274.546 288.477 C 274.869 289.064,274.979 286.952,274.988 279.980 L 275.000 270.703 279.688 270.703 L 284.375 270.703 284.375 295.215 M123.699 283.975 C 132.928 287.218,137.342 299.330,133.241 310.156 C 127.519 325.263,104.348 323.759,100.140 308.008 C 95.858 291.978,108.827 278.748,123.699 283.975 M193.860 283.387 C 201.877 285.086,207.031 292.001,207.031 301.059 L 207.031 303.906 194.531 303.906 L 182.031 303.906 182.033 305.176 C 182.047 312.832,192.156 316.708,196.671 310.789 L 197.749 309.375 202.373 309.375 L 206.997 309.375 206.439 310.957 C 201.314 325.481,176.463 323.171,173.220 307.869 C 169.910 292.252,179.881 280.425,193.860 283.387 M236.810 283.940 C 243.151 286.658,244.130 289.742,244.136 307.031 L 244.141 319.727 239.648 319.727 L 235.156 319.727 235.154 308.594 C 235.151 293.715,234.144 291.016,228.593 291.016 C 221.738 291.016,220.312 294.139,220.313 309.153 L 220.313 319.727 215.822 319.727 L 211.330 319.727 211.329 301.660 L 211.328 283.594 215.601 283.594 L 219.875 283.594 220.145 286.335 L 220.415 289.076 221.351 287.800 C 224.596 283.378,231.486 281.658,236.810 283.940 M346.387 283.059 C 347.228 283.284,347.266 283.471,347.266 287.448 L 347.267 291.602 345.046 291.464 C 340.918 291.207,337.789 292.976,336.165 296.484 C 335.413 298.110,335.344 299.047,335.248 308.934 L 335.145 319.626 330.659 319.676 L 326.173 319.727 326.172 301.660 L 326.172 283.594 330.469 283.594 L 334.766 283.594 334.766 286.523 C 334.766 288.216,334.931 289.453,335.156 289.453 C 335.371 289.453,335.547 289.216,335.547 288.926 C 335.547 285.705,342.406 281.992,346.387 283.059 M311.523 283.734 C 319.847 285.958,320.703 288.054,320.703 306.222 L 320.703 319.727 316.406 319.727 C 312.285 319.727,312.109 319.693,312.109 318.896 C 312.109 318.440,312.002 317.531,311.871 316.876 L 311.633 315.685 310.365 316.952 C 306.879 320.439,300.142 321.621,295.491 319.564 C 287.577 316.063,286.142 304.919,293.117 301.128 C 295.143 300.027,296.093 299.785,304.651 298.192 C 310.734 297.059,311.719 296.556,311.719 294.584 C 311.719 289.043,299.798 288.692,297.969 294.179 C 297.822 294.620,290.852 293.716,290.323 293.188 C 289.434 292.299,292.987 287.105,295.579 285.503 C 299.092 283.332,306.812 282.476,311.523 283.734 M186.914 290.584 C 184.223 291.830,182.031 294.911,182.031 297.448 L 182.031 298.438 189.894 298.438 L 197.756 298.438 197.497 296.777 C 196.675 291.501,191.489 288.466,186.914 290.584 M113.867 291.218 C 106.955 294.940,106.917 308.800,113.809 312.378 C 118.056 314.583,123.351 311.896,124.838 306.781 C 127.712 296.893,121.003 287.375,113.867 291.218 M263.921 291.197 C 256.541 293.828,256.209 308.479,263.444 312.189 C 269.140 315.109,274.621 310.764,274.934 303.081 C 275.304 293.983,270.537 288.839,263.921 291.197 M306.445 303.733 C 298.653 305.423,296.969 306.712,298.011 310.191 C 299.562 315.368,308.841 314.321,311.193 308.704 C 311.878 307.066,311.906 302.722,311.230 302.768 C 310.962 302.786,308.809 303.221,306.445 303.733 " stroke="none" fill="#1173c3" fill-rule="evenodd"></path><path id="path1" d="M187.109 45.523 C 133.701 52.243,95.814 96.229,97.793 149.219 C 100.562 223.355,178.583 269.552,245.547 236.705 C 303.969 208.047,320.641 132.073,279.637 81.352 C 258.527 55.238,222.076 41.123,187.109 45.523 M170.703 73.453 C 174.862 75.564,175.392 77.230,175.387 88.171 C 175.383 96.669,175.342 97.159,174.472 99.026 C 171.341 105.750,162.736 106.189,158.798 99.825 L 157.617 97.916 157.489 89.095 C 157.352 79.618,157.552 78.112,159.244 75.871 C 161.742 72.561,166.832 71.487,170.703 73.453 M237.804 73.519 C 239.666 74.388,241.232 76.207,242.021 78.417 C 242.793 80.582,242.780 95.275,242.003 97.878 C 239.498 106.277,227.559 106.435,225.063 98.102 C 224.331 95.661,224.452 79.648,225.216 77.819 C 227.195 73.082,232.780 71.174,237.804 73.519 M153.193 92.969 C 153.442 103.631,158.917 109.666,167.625 108.876 C 175.487 108.163,179.348 103.100,179.683 93.061 L 179.883 87.099 200.065 87.007 L 220.247 86.914 220.378 92.969 C 220.592 102.921,224.547 108.166,232.375 108.876 C 241.155 109.672,246.568 103.634,246.810 92.773 L 246.941 86.914 250.912 86.993 C 261.505 87.204,267.462 91.647,269.104 100.560 C 269.701 103.801,269.701 193.464,269.104 196.706 C 267.814 203.707,262.284 209.238,255.299 210.514 C 251.465 211.214,147.431 211.083,144.084 210.374 C 137.352 208.947,132.173 203.579,130.872 196.680 C 130.554 194.995,130.463 180.998,130.547 146.875 L 130.664 99.414 131.549 97.266 C 134.398 90.344,138.832 87.523,147.461 87.140 C 153.663 86.864,153.035 86.226,153.193 92.969 M157.173 131.332 C 150.953 135.750,150.813 148.599,156.914 155.121 C 166.151 164.996,185.912 159.036,185.934 146.367 C 185.941 141.938,186.139 142.088,171.410 135.389 C 160.019 130.208,159.117 129.951,157.173 131.332 M228.602 135.515 C 215.803 141.349,215.897 141.295,214.799 143.447 C 210.904 151.083,220.941 160.672,232.209 160.081 C 244.547 159.433,251.567 145.665,245.396 134.216 C 242.768 129.339,242.024 129.397,228.602 135.515 M176.758 170.649 C 167.434 176.408,183.567 189.844,199.805 189.844 C 214.721 189.844,230.911 177.846,224.563 171.498 C 222.181 169.116,220.145 169.534,215.682 173.317 C 206.230 181.332,193.645 181.208,184.180 173.007 C 180.604 169.908,178.856 169.353,176.758 170.649 M70.898 271.132 C 59.100 272.814,51.953 282.274,51.953 296.206 C 51.953 310.676,59.661 319.478,73.242 320.520 C 86.647 321.548,95.270 313.365,95.973 298.948 L 96.205 294.186 85.993 294.154 L 75.781 294.122 75.781 297.842 L 75.781 301.563 81.293 301.563 L 86.806 301.563 86.536 303.027 C 84.371 314.790,68.623 315.843,63.462 304.570 C 61.408 300.084,61.322 292.239,63.270 287.034 C 66.878 277.391,80.618 275.911,84.745 284.721 L 85.680 286.719 90.671 286.719 L 95.661 286.719 95.059 284.668 C 92.240 275.065,82.315 269.505,70.898 271.132 M138.672 295.215 L 138.672 319.727 154.492 319.727 L 170.313 319.727 170.313 315.527 L 170.313 311.328 159.277 311.328 L 148.242 311.328 148.347 291.016 L 148.451 270.703 143.562 270.703 L 138.672 270.703 138.672 295.215 M274.988 279.980 C 274.979 286.952,274.869 289.064,274.546 288.477 C 270.303 280.771,257.180 281.283,252.020 289.357 C 247.107 297.041,247.763 309.752,253.394 316.015 C 258.639 321.849,268.517 322.099,273.424 316.524 L 274.928 314.816 275.257 317.200 L 275.586 319.585 279.981 319.656 L 284.375 319.727 284.375 295.215 L 284.375 270.703 279.688 270.703 L 275.000 270.703 274.988 279.980 M113.298 283.233 C 96.351 286.234,94.153 313.315,110.352 319.537 C 119.271 322.964,130.066 318.540,133.241 310.156 C 139.083 294.735,128.561 280.531,113.298 283.233 M186.328 283.252 C 170.773 285.775,167.148 311.593,181.373 318.541 C 191.062 323.273,203.412 319.536,206.439 310.957 L 206.997 309.375 202.373 309.375 L 197.749 309.375 196.671 310.789 C 192.156 316.708,182.047 312.832,182.033 305.176 L 182.031 303.906 194.531 303.906 L 207.031 303.906 207.031 301.059 C 207.031 289.006,198.119 281.340,186.328 283.252 M228.650 283.197 C 225.758 283.809,223.008 285.543,221.351 287.800 L 220.415 289.076 220.145 286.335 L 219.875 283.594 215.601 283.594 L 211.328 283.594 211.329 301.660 L 211.330 319.727 215.822 319.727 L 220.313 319.727 220.313 309.153 C 220.312 294.139,221.738 291.016,228.593 291.016 C 234.144 291.016,235.151 293.715,235.154 308.594 L 235.156 319.727 239.648 319.727 L 244.141 319.727 244.136 307.031 C 244.131 293.333,243.956 291.793,242.034 288.512 C 239.559 284.289,233.975 282.072,228.650 283.197 M341.937 283.185 C 339.337 283.805,335.547 287.210,335.547 288.926 C 335.547 289.216,335.371 289.453,335.156 289.453 C 334.931 289.453,334.766 288.216,334.766 286.523 L 334.766 283.594 330.469 283.594 L 326.172 283.594 326.172 301.660 L 326.173 319.727 330.659 319.676 L 335.145 319.626 335.248 308.934 C 335.344 299.047,335.413 298.110,336.165 296.484 C 337.789 292.976,340.918 291.207,345.046 291.464 L 347.267 291.602 347.266 287.448 C 347.266 282.566,346.638 282.064,341.937 283.185 M299.155 283.953 C 296.354 284.848,294.575 285.948,292.866 287.839 C 291.569 289.276,289.906 292.771,290.323 293.188 C 290.852 293.716,297.822 294.620,297.969 294.179 C 299.798 288.692,311.719 289.043,311.719 294.584 C 311.719 296.556,310.734 297.059,304.651 298.192 C 296.093 299.785,295.143 300.027,293.117 301.128 C 286.142 304.919,287.577 316.063,295.491 319.564 C 300.142 321.621,306.879 320.439,310.365 316.952 L 311.633 315.685 311.871 316.876 C 312.002 317.531,312.109 318.440,312.109 318.896 C 312.109 319.693,312.285 319.727,316.406 319.727 L 320.703 319.727 320.703 306.222 C 320.703 291.144,320.608 290.461,318.101 287.532 C 314.738 283.603,305.629 281.882,299.155 283.953 M193.396 290.753 C 195.414 291.819,197.114 294.316,197.497 296.777 L 197.756 298.438 189.894 298.438 L 182.031 298.438 182.031 297.448 C 182.031 292.129,188.635 288.239,193.396 290.753 M121.754 292.045 C 127.300 296.534,126.544 309.274,120.547 312.388 C 113.815 315.883,107.283 308.212,108.987 298.813 C 110.303 291.555,116.856 288.081,121.754 292.045 M269.665 291.160 C 275.980 293.799,277.080 306.883,271.372 311.471 C 269.396 313.059,265.781 313.387,263.444 312.189 C 253.188 306.930,259.152 286.768,269.665 291.160 M311.719 305.091 C 311.719 310.511,307.050 314.495,301.843 313.518 C 297.222 312.651,296.298 306.883,300.524 305.281 C 301.968 304.733,309.973 302.854,311.230 302.768 C 311.571 302.745,311.719 303.448,311.719 305.091 " stroke="none" fill="#fbfbf4" fill-rule="evenodd"></path></g></svg>